<?xml version="1.0" encoding="UTF-8" standalone="no"?>
<svg
   xmlns:dc="http://purl.org/dc/elements/1.1/"
   xmlns:cc="http://creativecommons.org/ns#"
   xmlns:rdf="http://www.w3.org/1999/02/22-rdf-syntax-ns#"
   xmlns:svg="http://www.w3.org/2000/svg"
   xmlns="http://www.w3.org/2000/svg"
   version="1.1"
   id="svg2"
   viewBox="0 0 744.09448819 1052.3622047"
   height="297mm"
   width="210mm">
  <defs
     id="defs4" />
  <metadata
     id="metadata7">
    <rdf:RDF>
      <cc:Work
         rdf:about="">
        <dc:format>image/svg+xml</dc:format>
        <dc:type
           rdf:resource="http://purl.org/dc/dcmitype/StillImage" />
        <dc:title></dc:title>
      </cc:Work>
    </rdf:RDF>
  </metadata>
  <g
     id="layer1">
    <path
       id="path3360"
       d="m 650.44868,499.58492 c -20.68164,-1.61978 -34.07822,-7.92262 -41.13048,-19.35119 -2.93021,-4.7486 -4.84163,-11.35482 -5.35757,-18.51687 l -0.23118,-3.20945 17.54789,0 17.54793,0 0,1.05553 c 0,2.13001 1.12423,6.47284 2.33154,9.00653 0.93348,1.95906 1.89202,3.24835 3.87807,5.21618 4.69072,4.64784 8.63033,6.07413 15.99632,5.79124 10.92518,-0.41956 16.66278,-5.10094 16.65105,-13.58591 -0.008,-5.73267 -3.51693,-9.05303 -12.66092,-11.98029 -1.90832,-0.6109 -7.6104,-2.09767 -12.67123,-3.30391 -22.00564,-5.24501 -30.62985,-8.60128 -36.81417,-14.32685 -4.24619,-3.93124 -7.76913,-10.02131 -9.3784,-16.21246 -1.15395,-4.4394 -1.16248,-12.44755 -0.0181,-16.98058 0.83953,-3.32552 3.13798,-8.52151 4.90651,-11.09199 6.34045,-9.21555 18.02618,-15.25956 34.37169,-17.77751 5.73198,-0.88298 20.10314,-0.89226 25.67561,-0.0165 9.52295,1.49648 17.75303,4.30885 24.20825,8.27242 4.12559,2.53314 10.11574,8.50906 12.12094,12.0921 2.72321,4.86607 4.26604,10.961 4.26604,16.85304 l 0,2.57716 -16.92464,0 -16.92459,0 -0.38962,-2.47433 c -0.73307,-4.65545 -4.18148,-10.27478 -7.48499,-12.19709 -2.0552,-1.19592 -5.87597,-2.51021 -8.80625,-3.02921 -3.00189,-0.53169 -8.59786,-0.28656 -11.07237,0.48502 -3.90488,1.21759 -6.519,3.84355 -7.62972,7.66435 -1.86421,6.41268 1.9584,11.27456 11.14069,14.16958 2.55549,0.8057 6.36051,1.77106 22.95508,5.82391 19.69281,4.80952 30.26502,11.34132 35.47391,21.91671 2.95211,5.99354 4.16417,14.68347 2.98663,21.41255 -1.81267,10.35837 -8.86659,18.79277 -20.42478,24.42201 -10.12539,4.93142 -20.38013,7.11062 -34.42406,7.3154 -4.38914,0.064 -8.76094,0.0552 -9.7151,-0.0195 z m -120.15792,-0.50043 c -27.05849,-2.4176 -45.25625,-18.37464 -50.55379,-44.32896 -1.20467,-5.9021 -1.58103,-10.13923 -1.58155,-17.80565 0,-6.81006 0.32275,-10.94437 1.25103,-16.0035 4.26399,-23.23898 18.15613,-38.80938 39.54721,-44.32484 11.85024,-3.05545 25.72235,-3.09822 37.81372,-0.11661 6.708,1.65413 12.00377,3.93704 17.62695,7.59865 4.20217,2.73629 10.59303,9.00013 13.22846,12.96548 7.33788,11.04082 10.64545,23.38636 10.65045,39.75287 0.006,19.79891 -5.1024,34.73418 -15.64266,45.73361 -10.50667,10.96435 -24.15775,16.28722 -42.86462,16.71395 -3.24414,0.074 -7.508,-0.009 -9.4752,-0.185 z m 12.59791,-19.47259 c 2.56986,-0.53655 6.34704,-2.46066 8.41841,-4.28831 5.23013,-4.61478 8.58679,-12.29263 10.38561,-23.75553 0.89556,-5.70681 0.89639,-23.72596 0,-29.41201 -1.69618,-10.7759 -4.51443,-17.56079 -9.26917,-22.31554 -3.82723,-3.82721 -8.45508,-5.64085 -14.39374,-5.64085 -10.50157,0 -17.44142,5.84512 -21.31084,17.94917 -3.75158,11.73543 -4.18217,34.30847 -0.90083,47.226 2.76895,10.90044 7.87391,17.44831 15.5401,19.93236 2.93763,0.95187 7.81236,1.08071 11.52911,0.30471 z m -257.62355,19.10599 c -21.34475,-2.4175 -38.60963,-15.89106 -46.38032,-36.19539 -2.98644,-7.80336 -4.38207,-15.90386 -4.39805,-25.52708 -0.011,-6.64714 0.37592,-10.66189 1.57173,-16.3075 4.4687,-21.09723 18.14679,-37.17935 37.27854,-43.83054 7.06768,-2.45709 9.85839,-2.83733 20.77578,-2.8308 10.22517,0.006 13.12587,0.25868 20.40697,1.77688 19.98137,4.16636 31.66666,15.00302 35.27594,32.71402 0.38464,1.88748 0.69934,3.60242 0.69934,3.81098 0,0.26919 -4.98284,0.37921 -17.1749,0.37921 l -17.1749,0 0,-1.66194 c 0,-4.18743 -2.04422,-8.63296 -5.50702,-11.976 -3.86739,-3.73365 -8.33702,-5.53735 -13.74271,-5.5458 -5.85499,-0.009 -10.2698,1.78187 -14.26484,5.78705 -5.26675,5.28011 -8.46302,13.27025 -10.07814,25.1936 -0.83167,6.13969 -0.83776,18.90495 -0.0115,24.21965 2.49619,16.05722 9.05576,25.82825 19.06509,28.39908 1.59566,0.40984 3.11131,0.50834 5.80293,0.37711 8.33459,-0.40629 14.9105,-4.3671 18.40661,-11.08675 2.18775,-4.2049 2.80815,-7.09905 3.01503,-14.06494 l 0.17775,-5.98519 -12.70803,0 -12.70802,0 0,-11.27645 0,-11.27646 28.79832,0 28.79832,0 0,36.95207 0,36.95207 -14.57264,0 -14.57265,0 0,-4.85613 0,-4.85616 -2.05619,1.65691 c -5.73407,4.62057 -14.20254,8.06898 -22.31286,9.08594 -3.27955,0.41119 -8.64116,0.39936 -12.40954,-0.0274 z m -241.836526,-62.24293 0,-61.23981 27.213584,0 c 25.620439,0 27.223724,0.0356 27.386728,0.6072 0.09522,0.33395 2.799084,13.15476 6.008574,28.49069 3.20949,15.33592 5.8714,27.67063 5.91535,27.41045 0.0439,-0.26017 2.12322,-12.72968 4.6206,-27.71001 2.49737,-14.98033 4.6252,-27.58828 4.7285,-28.01765 l 0.18783,-0.78068 27.89329,0 27.8933,0 0,61.23981 0,61.23981 -17.86739,0 -17.86739,0 -0.0882,-39.98721 -0.0882,-39.98719 -8.50071,39.98575 -8.50071,39.98576 -16.30748,0 -16.307485,0 -8.847686,-37.31538 -8.847678,-37.31541 -0.08829,37.31823 -0.08831,37.31822 -14.22412,0 -14.224121,0 0,-61.2398 z m 320.598206,-0.34697 0,-61.58678 31.55515,0 c 19.55095,0 33.24527,0.14211 35.99791,0.37355 17.93938,1.50833 30.41148,7.29573 36.14356,16.77164 3.73511,6.17463 4.75676,15.78356 2.60268,24.479 -1.2741,5.14326 -4.26701,9.9882 -7.83974,12.69112 -2.57897,1.95109 -4.2572,2.74527 -7.58905,3.59141 l -2.46979,0.62721 2.28544,0.23416 c 4.70982,0.48253 8.87367,2.25431 11.10675,4.72607 3.64143,4.03062 4.01643,7.51343 4.02549,37.38672 l 0.007,22.29268 -17.33391,0 -17.33396,0 -0.10541,-22.1192 c -0.1,-20.96914 -0.14094,-22.21841 -0.78803,-24.02751 -0.92283,-2.58003 -2.91044,-4.53118 -5.41995,-5.32052 -3.10293,-0.976 -7.38247,-1.25913 -19.1309,-1.2657 l -11.0164,-0.006 0,26.36957 0,26.36955 -17.34839,0 -17.34838,0 0,-61.58679 z m 62.86768,-14.66657 c 3.15293,-0.86805 4.34871,-1.44725 6.02301,-2.91729 1.98743,-1.74498 3.02393,-4.14772 3.20498,-7.42951 0.37326,-6.76653 -2.48572,-10.27888 -9.59311,-11.78534 -1.73778,-0.36833 -5.4358,-0.48975 -15.05472,-0.4943 l -12.75106,-0.006 0,11.82633 0,11.82633 12.75106,-0.14273 c 11.6534,-0.13042 12.98079,-0.20597 15.41984,-0.87747 z m -234.61672,28.89225 0,-47.01413 17.34839,0 17.34839,0 0,47.01413 0,47.01413 -17.34839,0 -17.34839,0 0,-47.01413 z m 0,-64.36251 0,-10.40904 17.34839,0 17.34839,0 0,10.40904 0,10.40902 -17.34839,0 -17.34839,0 0,-10.40902 z"
       style="fill:#000000" />
  </g>
</svg>
