<?xml version="1.0" encoding="UTF-8" standalone="no"?>
<svg
   xmlns:dc="http://purl.org/dc/elements/1.1/"
   xmlns:cc="http://creativecommons.org/ns#"
   xmlns:rdf="http://www.w3.org/1999/02/22-rdf-syntax-ns#"
   xmlns:svg="http://www.w3.org/2000/svg"
   xmlns="http://www.w3.org/2000/svg"
   version="1.1"
   id="svg2"
   viewBox="0 0 744.09448819 1052.3622047"
   height="297mm"
   width="210mm">
  <defs
     id="defs4" />
  <metadata
     id="metadata7">
    <rdf:RDF>
      <cc:Work
         rdf:about="">
        <dc:format>image/svg+xml</dc:format>
        <dc:type
           rdf:resource="http://purl.org/dc/dcmitype/StillImage" />
        <dc:title></dc:title>
      </cc:Work>
    </rdf:RDF>
  </metadata>
  <g
     id="layer1">
    <g
       id="flowRoot3336"
       style="font-style:normal;font-weight:normal;font-size:40px;line-height:125%;font-family:sans-serif;text-align:center;letter-spacing:0px;word-spacing:0px;text-anchor:middle;fill:#000000;fill-opacity:1;stroke:none;stroke-width:1px;stroke-linecap:butt;stroke-linejoin:miter;stroke-opacity:1">
      <path
         id="path3345"
         style=""
         d="m 179.80469,353.99481 q 0,1.69921 -0.80078,3.35937 -0.78125,1.66016 -2.20704,2.8125 -1.5625,1.25 -3.65234,1.95313 -2.07031,0.70312 -5,0.70312 -3.14453,0 -5.66406,-0.58594 -2.5,-0.58593 -5.09766,-1.73828 l 0,-4.84375 0.27344,0 q 2.20703,1.83594 5.09766,2.83203 2.89062,0.9961 5.42968,0.9961 3.59375,0 5.58594,-1.34766 2.01172,-1.34766 2.01172,-3.59375 0,-1.93359 -0.95703,-2.85156 -0.9375,-0.91797 -2.8711,-1.42578 -1.46484,-0.39063 -3.18359,-0.64453 -1.69922,-0.25391 -3.61328,-0.64454 -3.86719,-0.82031 -5.74219,-2.79296 -1.85547,-1.99219 -1.85547,-5.17579 0,-3.65234 3.08594,-5.97656 3.08594,-2.34375 7.83203,-2.34375 3.06641,0 5.625,0.58594 2.5586,0.58594 4.53125,1.44531 l 0,4.57031 -0.27344,0 q -1.66015,-1.40625 -4.375,-2.32421 -2.69531,-0.9375 -5.52734,-0.9375 -3.10547,0 -5,1.28906 -1.875,1.28906 -1.875,3.32031 0,1.81641 0.9375,2.85156 0.9375,1.03516 3.30078,1.58203 1.25,0.27344 3.55469,0.66407 2.30469,0.39062 3.90625,0.80078 3.24219,0.85937 4.88281,2.59765 1.64063,1.73829 1.64063,4.86329 z" />
      <path
         id="path3347"
         style=""
         d="m 205.17578,362.29559 -19.16016,0 0,-29.08203 19.16016,0 0,3.4375 -15.29297,0 0,7.96875 15.29297,0 0,3.4375 -15.29297,0 0,10.80078 15.29297,0 0,3.4375 z" />
      <path
         id="path3349"
         style=""
         d="m 233.51562,362.29559 -4.78515,0 -13.78906,-26.01563 0,26.01563 -3.61329,0 0,-29.08203 5.9961,0 12.57812,23.75 0,-23.75 3.61328,0 0,29.08203 z" />
      <path
         id="path3351"
         style=""
         d="m 264.17969,362.29559 -4.1211,0 -2.85156,-8.10547 -12.57812,0 -2.85157,8.10547 -3.92578,0 10.58594,-29.08203 5.15625,0 10.58594,29.08203 z m -8.16407,-11.42578 -5.09765,-14.27735 -5.11719,14.27735 10.21484,0 z" />
      <path
         id="path3353"
         style=""
         d="m 292.65625,362.29559 -5.01953,0 -9.72656,-11.5625 -5.44922,0 0,11.5625 -3.86719,0 0,-29.08203 8.14453,0 q 2.63672,0 4.39453,0.35156 1.75781,0.33203 3.16406,1.21094 1.58204,0.99609 2.46094,2.51953 0.89844,1.5039 0.89844,3.82812 0,3.14453 -1.58203,5.27344 -1.58203,2.10937 -4.35547,3.18359 l 10.9375,12.71485 z m -9.04297,-20.89844 q 0,-1.25 -0.44922,-2.20703 -0.42969,-0.97656 -1.44531,-1.64063 -0.83984,-0.5664 -1.99219,-0.78125 -1.15234,-0.23437 -2.71484,-0.23437 l -4.55078,0 0,10.97656 3.90625,0 q 1.83593,0 3.20312,-0.3125 1.36719,-0.33203 2.32422,-1.21094 0.87891,-0.82031 1.28906,-1.875 0.42969,-1.07422 0.42969,-2.71484 z" />
      <path
         id="path3355"
         style=""
         d="m 316.60156,333.21356 -10.23437,16.32812 0,12.75391 -3.86719,0 0,-12.34375 -10.27344,-16.73828 4.27735,0 7.94921,13.00781 8.02735,-13.00781 4.12109,0 z" />
      <path
         id="path3357"
         style=""
         d="m 341.91406,336.5534 q 1.77735,1.95312 2.71485,4.78516 0.95703,2.83203 0.95703,6.42578 0,3.59375 -0.97657,6.44531 -0.95703,2.83203 -2.69531,4.72656 -1.79687,1.97266 -4.25781,2.96875 -2.44141,0.9961 -5.58594,0.9961 -3.0664,0 -5.58594,-1.01563 -2.5,-1.01562 -4.25781,-2.94922 -1.75781,-1.93359 -2.71484,-4.74609 -0.9375,-2.8125 -0.9375,-6.42578 0,-3.55469 0.9375,-6.36719 0.9375,-2.83203 2.73437,-4.84375 1.71875,-1.91406 4.25782,-2.92969 2.55859,-1.01562 5.5664,-1.01562 3.125,0 5.60547,1.03515 2.5,1.01563 4.23828,2.91016 z m -0.35156,11.21094 q 0,-5.66407 -2.53906,-8.73047 -2.53907,-3.08594 -6.9336,-3.08594 -4.43359,0 -6.97265,3.08594 -2.51953,3.0664 -2.51953,8.73047 0,5.72265 2.57812,8.76953 2.57813,3.02734 6.91406,3.02734 4.33594,0 6.89453,-3.02734 2.57813,-3.04688 2.57813,-8.76953 z" />
      <path
         id="path3359"
         style=""
         d="m 373.90625,362.29559 -4.78516,0 -13.78906,-26.01563 0,26.01563 -3.61328,0 0,-29.08203 5.99609,0 12.57813,23.75 0,-23.75 3.61328,0 0,29.08203 z" />
      <path
         id="path3361"
         style=""
         d="m 403.53516,350.6159 q 0,3.16406 -0.70313,5.52734 -0.68359,2.34375 -2.26562,3.90625 -1.50391,1.48438 -3.51563,2.16797 -2.01172,0.6836 -4.6875,0.6836 -2.73437,0 -4.76562,-0.72266 -2.03125,-0.72266 -3.41797,-2.12891 -1.58203,-1.60156 -2.28516,-3.86718 -0.68359,-2.26563 -0.68359,-5.56641 l 0,-17.40234 3.86718,0 0,17.59765 q 0,2.36328 0.3125,3.73047 0.33204,1.36719 1.09375,2.48047 0.85938,1.26953 2.32422,1.91406 1.48438,0.64453 3.55469,0.64453 2.08984,0 3.55469,-0.625 1.46484,-0.64453 2.34375,-1.93359 0.76172,-1.11328 1.07422,-2.53906 0.33203,-1.44532 0.33203,-3.57422 l 0,-17.69531 3.86719,0 0,17.40234 z" />
      <path
         id="path3363"
         style=""
         d="m 432.1875,362.29559 -22.69531,0 0,-3.59375 17.83203,-22.05078 -17.16797,0 0,-3.4375 21.60156,0 0,3.49609 -18.00781,22.14844 18.4375,0 0,3.4375 z" />
      <path
         id="path3365"
         style=""
         d="m 460.25391,350.6159 q 0,3.16406 -0.70313,5.52734 -0.68359,2.34375 -2.26562,3.90625 -1.50391,1.48438 -3.51563,2.16797 -2.01172,0.6836 -4.6875,0.6836 -2.73437,0 -4.76562,-0.72266 -2.03125,-0.72266 -3.41797,-2.12891 -1.58203,-1.60156 -2.28516,-3.86718 -0.68359,-2.26563 -0.68359,-5.56641 l 0,-17.40234 3.86718,0 0,17.59765 q 0,2.36328 0.3125,3.73047 0.33204,1.36719 1.09375,2.48047 0.85938,1.26953 2.32422,1.91406 1.48438,0.64453 3.55469,0.64453 2.08984,0 3.55469,-0.625 1.46484,-0.64453 2.34375,-1.93359 0.76172,-1.11328 1.07422,-2.53906 0.33203,-1.44532 0.33203,-3.57422 l 0,-17.69531 3.86719,0 0,17.40234 z" />
      <path
         id="path3367"
         style=""
         d="m 502.85156,353.99481 q 0,1.69921 -0.80078,3.35937 -0.78125,1.66016 -2.20703,2.8125 -1.5625,1.25 -3.65234,1.95313 -2.07032,0.70312 -5,0.70312 -3.14454,0 -5.66407,-0.58594 -2.5,-0.58593 -5.09765,-1.73828 l 0,-4.84375 0.27343,0 q 2.20704,1.83594 5.09766,2.83203 2.89063,0.9961 5.42969,0.9961 3.59375,0 5.58594,-1.34766 2.01171,-1.34766 2.01171,-3.59375 0,-1.93359 -0.95703,-2.85156 -0.9375,-0.91797 -2.87109,-1.42578 -1.46484,-0.39063 -3.18359,-0.64453 -1.69922,-0.25391 -3.61329,-0.64454 -3.86718,-0.82031 -5.74218,-2.79296 -1.85547,-1.99219 -1.85547,-5.17579 0,-3.65234 3.08594,-5.97656 3.08593,-2.34375 7.83203,-2.34375 3.0664,0 5.625,0.58594 2.55859,0.58594 4.53125,1.44531 l 0,4.57031 -0.27344,0 q -1.66016,-1.40625 -4.375,-2.32421 -2.69531,-0.9375 -5.52734,-0.9375 -3.10547,0 -5,1.28906 -1.875,1.28906 -1.875,3.32031 0,1.81641 0.9375,2.85156 0.9375,1.03516 3.30078,1.58203 1.25,0.27344 3.55468,0.66407 2.30469,0.39062 3.90625,0.80078 3.24219,0.85937 4.88282,2.59765 1.64062,1.73829 1.64062,4.86329 z" />
      <path
         id="path3369"
         style=""
         d="m 528.22266,362.29559 -19.16016,0 0,-29.08203 19.16016,0 0,3.4375 -15.29297,0 0,7.96875 15.29297,0 0,3.4375 -15.29297,0 0,10.80078 15.29297,0 0,3.4375 z" />
      <path
         id="path3371"
         style=""
         d="m 556.83594,360.18621 q -1.07422,0.46875 -1.95313,0.87891 -0.85937,0.41015 -2.26562,0.85937 -0.21485,0.0586 -0.46875,0.15625 -0.25391,0.0781 -0.60547,0.13672 0.0391,0.3711 0.0586,0.85938 0.0391,0.50781 0.0391,0.95703 0,3.16406 -1.83593,4.84375 -1.81641,1.67969 -4.6875,1.67969 -0.74219,0 -1.91407,-0.13672 -1.15234,-0.13672 -2.03125,-0.3711 l 0,-3.16406 0.17579,0 q 0.50781,0.19531 1.38671,0.46875 0.89844,0.27344 1.875,0.27344 2.07032,0 3.02735,-0.78125 0.95703,-0.78125 0.95703,-2.46094 0,-0.37109 -0.0195,-0.82031 -0.0195,-0.42969 -0.0586,-0.82031 -0.37109,0.0391 -0.80078,0.0586 -0.41015,0.0195 -0.76172,0.0195 -3.16406,0 -5.76171,-0.87891 -2.57813,-0.89843 -4.49219,-2.79296 -1.875,-1.85547 -2.92969,-4.70704 -1.05469,-2.87109 -1.05469,-6.66015 0,-3.59375 1.01563,-6.42578 1.01562,-2.83203 2.92969,-4.78516 1.85546,-1.89453 4.47265,-2.89062 2.63672,-0.9961 5.83985,-0.9961 2.34375,0 4.66796,0.56641 2.34375,0.5664 5.19532,1.99219 l 0,4.58984 -0.29297,0 q -2.40235,-2.01172 -4.76563,-2.92969 -2.36328,-0.91797 -5.05859,-0.91797 -2.20703,0 -3.98438,0.72266 -1.75781,0.70312 -3.14453,2.20703 -1.34765,1.46484 -2.10937,3.71094 -0.74219,2.22656 -0.74219,5.15625 0,3.0664 0.82031,5.27344 0.83985,2.20703 2.14844,3.59375 1.36719,1.44531 3.18359,2.14843 1.83594,0.6836 3.86719,0.6836 2.79297,0 5.23438,-0.95703 2.4414,-0.95704 4.57031,-2.8711 l 0.27344,0 0,4.53125 z" />
      <path
         id="path3373"
         style=""
         d="m 572.59766,362.29559 -11.48438,0 0,-2.96875 3.80859,0 0,-23.14453 -3.80859,0 0,-2.96875 11.48438,0 0,2.96875 -3.8086,0 0,23.14453 3.8086,0 0,2.96875 z m -3.67188,-32.75391 -4.14062,0 0,-3.80859 4.14062,0 0,3.80859 z" />
      <path
         id="path3375"
         style=""
         d="m 601.40625,362.29559 -4.78516,0 -13.78906,-26.01563 0,26.01563 -3.61328,0 0,-29.08203 5.99609,0 12.57813,23.75 0,-23.75 3.61328,0 0,29.08203 z" />
    </g>
  </g>
</svg>
