<?xml version="1.0" encoding="UTF-8" standalone="no"?>
<svg
   xmlns:dc="http://purl.org/dc/elements/1.1/"
   xmlns:cc="http://creativecommons.org/ns#"
   xmlns:rdf="http://www.w3.org/1999/02/22-rdf-syntax-ns#"
   xmlns:svg="http://www.w3.org/2000/svg"
   xmlns="http://www.w3.org/2000/svg"
   version="1.1"
   id="svg2"
   viewBox="0 0 744.09448819 1052.3622047"
   height="297mm"
   width="210mm">
  <defs
     id="defs4" />
  <metadata
     id="metadata7">
    <rdf:RDF>
      <cc:Work
         rdf:about="">
        <dc:format>image/svg+xml</dc:format>
        <dc:type
           rdf:resource="http://purl.org/dc/dcmitype/StillImage" />
        <dc:title></dc:title>
      </cc:Work>
    </rdf:RDF>
  </metadata>
  <g
     id="layer1">
    <g
       id="text3336"
       style="font-style:normal;font-weight:normal;font-size:85.04673767px;line-height:125%;font-family:sans-serif;letter-spacing:0px;word-spacing:0px;fill:#000000;fill-opacity:1;stroke:none;stroke-width:1px;stroke-linecap:butt;stroke-linejoin:miter;stroke-opacity:1">
      <path
         id="path3341"
         style="font-style:normal;font-variant:normal;font-weight:bold;font-stretch:normal;font-family:sans-serif;-inkscape-font-specification:'sans-serif Bold'"
         d="m 95.36691,90.632153 -19.309929,0 0,49.873597 -15.946263,0 0,-49.873597 -19.309928,0 0,-11.959698 54.56612,0 0,11.959698 z" />
      <path
         id="path3343"
         style="font-style:normal;font-variant:normal;font-weight:bold;font-stretch:normal;font-family:sans-serif;-inkscape-font-specification:'sans-serif Bold'"
         d="m 149.68387,140.50575 -44.72429,0 0,-61.833295 44.72429,0 0,11.959698 -28.86108,0 0,10.672367 26.78474,0 0,11.9597 -26.78474,0 0,15.28184 28.86108,0 0,11.95969 z" />
      <path
         id="path3345"
         style="font-style:normal;font-variant:normal;font-weight:bold;font-stretch:normal;font-family:sans-serif;-inkscape-font-specification:'sans-serif Bold'"
         d="m 188.13762,141.37781 q -0.99665,0.0831 -2.11787,0.12458 -1.12122,0.0415 -2.20091,0.0415 -7.68245,0 -13.41314,-1.28733 -5.68916,-1.32885 -10.67237,-3.40519 l 0,-14.82504 1.74413,0 q 4.94168,3.94504 11.04611,6.0629 6.14595,2.11786 11.79359,2.11786 1.45343,0 3.82046,-0.20763 2.36702,-0.24916 3.86198,-0.87206 1.82718,-0.74748 2.98993,-1.8687 1.20427,-1.12123 1.20427,-3.32214 0,-2.03481 -1.74412,-3.48825 -1.7026,-1.49496 -5.02474,-2.28397 -3.48824,-0.83053 -7.39175,-1.53649 -3.86199,-0.74748 -7.26718,-1.8687 -7.80703,-2.53313 -11.25374,-6.85191 -3.4052,-4.3603 -3.4052,-10.796948 0,-8.637559 7.72398,-14.07756 7.76549,-5.481528 19.93282,-5.481528 6.10443,0 12.04276,1.204275 5.97984,1.162748 10.34015,2.948398 l 0,14.243667 -1.70259,0 q -3.73741,-2.989924 -9.17741,-4.983207 -5.39848,-2.03481 -11.04611,-2.03481 -1.99328,0 -3.98657,0.290687 -1.95175,0.249161 -3.77893,0.996642 -1.61954,0.622901 -2.78229,1.910229 -1.16275,1.245802 -1.16275,2.865344 0,2.450077 1.8687,3.778933 1.86871,1.287328 7.05955,2.367028 3.40519,0.70595 6.56122,1.37038 3.15603,0.6229 6.72733,1.82717 7.10107,2.3255 10.46474,6.35359 3.40519,3.98657 3.40519,10.38168 0,6.47817 -3.94504,11.29527 -3.90351,4.8171 -11.3368,7.22565 0.0831,0.87207 0.12458,2.20092 0.0831,1.37038 0.0831,2.28397 0,6.72733 -4.15268,10.34016 -4.11114,3.65435 -10.75542,3.65435 -1.45343,0 -4.23573,-0.24916 -2.74076,-0.20764 -4.60946,-0.74748 l 0,-8.30535 0.95511,0 q 0.99664,0.4568 2.90687,0.95512 1.91023,0.49832 3.65436,0.49832 3.32213,0 5.06626,-1.74413 1.78565,-1.70259 1.78565,-4.90015 l 0,-2.20092 z" />
      <path
         id="path3347"
         style="font-style:normal;font-variant:normal;font-weight:bold;font-stretch:normal;font-family:sans-serif;-inkscape-font-specification:'sans-serif Bold'"
         d="m 268.2842,140.50575 -44.72429,0 0,-61.833295 44.72429,0 0,11.959698 -28.86108,0 0,10.672367 26.78474,0 0,11.9597 -26.78474,0 0,15.28184 28.86108,0 0,11.95969 z" />
      <path
         id="path3349"
         style="font-style:normal;font-variant:normal;font-weight:bold;font-stretch:normal;font-family:sans-serif;-inkscape-font-specification:'sans-serif Bold'"
         d="m 339.41948,140.50575 -19.55908,0 -18.4794,-24.74993 -3.7374,4.52642 0,20.22351 -15.94627,0 0,-61.833295 15.94627,0 0,27.989015 22.09222,-27.989015 18.47939,0 -24.16856,28.611915 25.37283,33.22138 z" />
      <path
         id="path3351"
         style="font-style:normal;font-variant:normal;font-weight:bold;font-stretch:normal;font-family:sans-serif;-inkscape-font-specification:'sans-serif Bold'"
         d="m 405.03171,140.50575 -19.55909,0 -18.47939,-24.74993 -3.73741,4.52642 0,20.22351 -15.94626,0 0,-61.833295 15.94626,0 0,27.989015 22.09222,-27.989015 18.4794,0 -24.16856,28.611915 25.37283,33.22138 z" />
      <path
         id="path3353"
         style="font-style:normal;font-variant:normal;font-weight:bold;font-stretch:normal;font-family:sans-serif;-inkscape-font-specification:'sans-serif Bold'"
         d="m 467.07263,118.12285 q 0,11.46137 -6.97649,17.5658 -6.97649,6.10443 -20.55573,6.10443 -13.57924,0 -20.55573,-6.10443 -6.93497,-6.10443 -6.93497,-17.52428 l 0,-39.491915 16.02932,0 0,38.578335 q 0,6.43664 2.69924,9.59267 2.69923,3.15603 8.76214,3.15603 5.97985,0 8.72061,-3.03145 2.78229,-3.03145 2.78229,-9.71725 l 0,-38.578335 16.02932,0 0,39.450395 z m -10.17405,-46.385358 -12.33344,0 0,-11.336797 12.33344,0 0,11.336797 z m -22.29985,0 -12.33344,0 0,-11.336797 12.33344,0 0,11.336797 z" />
      <path
         id="path3355"
         style="font-style:normal;font-variant:normal;font-weight:bold;font-stretch:normal;font-family:sans-serif;-inkscape-font-specification:'sans-serif Bold'"
         d="m 516.69709,97.608643 q 0,-2.325497 -0.95512,-3.986566 -0.95511,-1.661069 -3.28061,-2.616183 -1.61954,-0.664428 -3.77893,-0.789008 -2.15939,-0.166107 -5.02474,-0.166107 l -5.77221,0 0,16.652221 4.90015,0 q 3.82046,0 6.39512,-0.37374 2.57466,-0.37374 4.31878,-1.7026 1.66107,-1.28733 2.40855,-2.82382 0.78901,-1.57801 0.78901,-4.194197 z m 24.87451,42.897107 -19.47604,0 -16.85985,-22.67359 -7.35023,0 0,22.67359 -15.86321,0 0,-61.833295 26.74321,0 q 5.48153,0 9.42657,0.622901 3.94504,0.622901 7.39176,2.699238 3.48824,2.076336 5.52305,5.398474 2.07634,3.280612 2.07634,8.263819 0,6.851913 -3.19756,11.170693 -3.15603,4.31878 -9.05283,7.18412 l 20.63879,26.49405 z" />
      <path
         id="path3357"
         style="font-style:normal;font-variant:normal;font-weight:bold;font-stretch:normal;font-family:sans-serif;-inkscape-font-specification:'sans-serif Bold'"
         d="m 593.23083,140.50575 -44.5997,0 0,-61.833295 15.94626,0 0,49.873605 28.65344,0 0,11.95969 z" />
      <path
         id="path3359"
         style="font-style:normal;font-variant:normal;font-weight:bold;font-stretch:normal;font-family:sans-serif;-inkscape-font-specification:'sans-serif Bold'"
         d="m 647.50626,140.50575 -44.72429,0 0,-61.833295 44.72429,0 0,11.959698 -28.86108,0 0,10.672367 26.78474,0 0,11.9597 -26.78474,0 0,15.28184 28.86108,0 0,11.95969 z" />
      <path
         id="path3361"
         style="font-style:normal;font-variant:normal;font-weight:bold;font-stretch:normal;font-family:sans-serif;-inkscape-font-specification:'sans-serif Bold'"
         d="m 695.59424,97.608643 q 0,-2.325497 -0.95511,-3.986566 -0.95512,-1.661069 -3.28061,-2.616183 -1.61955,-0.664428 -3.77894,-0.789008 -2.15939,-0.166107 -5.02473,-0.166107 l -5.77222,0 0,16.652221 4.90016,0 q 3.82046,0 6.39511,-0.37374 2.57466,-0.37374 4.31878,-1.7026 1.66107,-1.28733 2.40855,-2.82382 0.78901,-1.57801 0.78901,-4.194197 z m 24.87451,42.897107 -19.47603,0 -16.85985,-22.67359 -7.35024,0 0,22.67359 -15.86321,0 0,-61.833295 26.74322,0 q 5.48153,0 9.42656,0.622901 3.94504,0.622901 7.39176,2.699238 3.48825,2.076336 5.52306,5.398474 2.07633,3.280612 2.07633,8.263819 0,6.851913 -3.19756,11.170693 -3.15603,4.31878 -9.05282,7.18412 l 20.63878,26.49405 z" />
    </g>
  </g>
</svg>
